<mxfile host="app.diagrams.net" modified="2023-09-03T15:45:44.872Z" agent="Mozilla/5.0 (Windows NT 10.0; Win64; x64) AppleWebKit/537.36 (KHTML, like Gecko) Chrome/116.0.0.0 Safari/537.36" etag="VO-Du-9tcpMBZL_1AVwH" version="21.7.2" type="device">
  <diagram name="Page-1" id="OyQtbzTSSyEY2cW9NAnO">
    <mxGraphModel dx="2427" dy="949" grid="1" gridSize="10" guides="1" tooltips="1" connect="1" arrows="1" fold="1" page="1" pageScale="1" pageWidth="827" pageHeight="1169" math="0" shadow="0">
      <root>
        <mxCell id="0" />
        <mxCell id="1" parent="0" />
        <mxCell id="Dgxblj_lXLzGdG6ywSU2-22" value="" style="html=1;whiteSpace=wrap;movable=0;resizable=0;rotatable=0;deletable=0;editable=0;locked=1;connectable=0;" parent="1" vertex="1">
          <mxGeometry x="1270" width="1080" height="1240" as="geometry" />
        </mxCell>
        <mxCell id="Dgxblj_lXLzGdG6ywSU2-23" value="&lt;font style=&quot;font-size: 18px;&quot;&gt;Utilisateur&lt;/font&gt;" style="shape=umlActor;verticalLabelPosition=bottom;verticalAlign=top;html=1;outlineConnect=0;" parent="1" vertex="1">
          <mxGeometry x="1100" y="240" width="110" height="250" as="geometry" />
        </mxCell>
        <mxCell id="Dgxblj_lXLzGdG6ywSU2-26" value=" supprime un livre" style="ellipse;whiteSpace=wrap;html=1;flipH=0;flipV=1;" parent="1" vertex="1">
          <mxGeometry x="1450" y="193" width="190" height="80" as="geometry" />
        </mxCell>
        <mxCell id="Dgxblj_lXLzGdG6ywSU2-27" value="ajoute un nouveau livre" style="ellipse;whiteSpace=wrap;html=1;flipH=0;flipV=1;" parent="1" vertex="1">
          <mxGeometry x="1450" y="80" width="190" height="80" as="geometry" />
        </mxCell>
        <mxCell id="Dgxblj_lXLzGdG6ywSU2-28" value="&amp;nbsp;édité les informations d&#39;un livre existant" style="ellipse;whiteSpace=wrap;html=1;flipH=0;flipV=1;" parent="1" vertex="1">
          <mxGeometry x="1450" y="306" width="190" height="80" as="geometry" />
        </mxCell>
        <mxCell id="Dgxblj_lXLzGdG6ywSU2-31" value="vérifié livre&amp;nbsp;" style="ellipse;whiteSpace=wrap;html=1;" parent="1" vertex="1">
          <mxGeometry x="2040" y="420" width="190" height="80" as="geometry" />
        </mxCell>
        <mxCell id="Dgxblj_lXLzGdG6ywSU2-32" value="" style="endArrow=none;html=1;rounded=0;exitX=1;exitY=0.3333333333333333;exitDx=0;exitDy=0;exitPerimeter=0;entryX=0;entryY=0.5;entryDx=0;entryDy=0;" parent="1" source="Dgxblj_lXLzGdG6ywSU2-23" target="Dgxblj_lXLzGdG6ywSU2-27" edge="1">
          <mxGeometry width="50" height="50" relative="1" as="geometry">
            <mxPoint x="1290" y="370" as="sourcePoint" />
            <mxPoint x="1340" y="320" as="targetPoint" />
          </mxGeometry>
        </mxCell>
        <mxCell id="Dgxblj_lXLzGdG6ywSU2-33" value="" style="endArrow=none;html=1;rounded=0;exitX=1;exitY=0.3333333333333333;exitDx=0;exitDy=0;exitPerimeter=0;entryX=0;entryY=0.5;entryDx=0;entryDy=0;" parent="1" source="Dgxblj_lXLzGdG6ywSU2-23" target="Dgxblj_lXLzGdG6ywSU2-26" edge="1">
          <mxGeometry width="50" height="50" relative="1" as="geometry">
            <mxPoint x="1220" y="333" as="sourcePoint" />
            <mxPoint x="1460" y="130" as="targetPoint" />
          </mxGeometry>
        </mxCell>
        <mxCell id="Dgxblj_lXLzGdG6ywSU2-34" value="" style="endArrow=none;html=1;rounded=0;exitX=1;exitY=0.3333333333333333;exitDx=0;exitDy=0;exitPerimeter=0;entryX=0;entryY=0.5;entryDx=0;entryDy=0;" parent="1" source="Dgxblj_lXLzGdG6ywSU2-23" target="Dgxblj_lXLzGdG6ywSU2-28" edge="1">
          <mxGeometry width="50" height="50" relative="1" as="geometry">
            <mxPoint x="1230" y="343" as="sourcePoint" />
            <mxPoint x="1470" y="140" as="targetPoint" />
          </mxGeometry>
        </mxCell>
        <mxCell id="Dgxblj_lXLzGdG6ywSU2-35" value="rechercher" style="ellipse;whiteSpace=wrap;html=1;flipH=0;flipV=1;" parent="1" vertex="1">
          <mxGeometry x="1450" y="419" width="190" height="80" as="geometry" />
        </mxCell>
        <mxCell id="Dgxblj_lXLzGdG6ywSU2-36" value="générer un rapport contenant des statistiques sur les livres disponibles" style="ellipse;whiteSpace=wrap;html=1;flipH=0;flipV=1;" parent="1" vertex="1">
          <mxGeometry x="1450" y="900" width="190" height="80" as="geometry" />
        </mxCell>
        <mxCell id="Dgxblj_lXLzGdG6ywSU2-37" value="" style="endArrow=none;html=1;rounded=0;exitX=1;exitY=0.3333333333333333;exitDx=0;exitDy=0;exitPerimeter=0;entryX=0;entryY=0.5;entryDx=0;entryDy=0;" parent="1" source="Dgxblj_lXLzGdG6ywSU2-23" target="Dgxblj_lXLzGdG6ywSU2-35" edge="1">
          <mxGeometry width="50" height="50" relative="1" as="geometry">
            <mxPoint x="1220" y="333" as="sourcePoint" />
            <mxPoint x="1460" y="360" as="targetPoint" />
          </mxGeometry>
        </mxCell>
        <mxCell id="Dgxblj_lXLzGdG6ywSU2-38" value="" style="endArrow=none;html=1;rounded=0;exitX=1;exitY=0.3333333333333333;exitDx=0;exitDy=0;exitPerimeter=0;entryX=0;entryY=0.5;entryDx=0;entryDy=0;" parent="1" source="Dgxblj_lXLzGdG6ywSU2-23" target="Dgxblj_lXLzGdG6ywSU2-36" edge="1">
          <mxGeometry width="50" height="50" relative="1" as="geometry">
            <mxPoint x="1230" y="343" as="sourcePoint" />
            <mxPoint x="1470" y="370" as="targetPoint" />
          </mxGeometry>
        </mxCell>
        <mxCell id="Dgxblj_lXLzGdG6ywSU2-40" value="include" style="endArrow=open;endSize=12;dashed=1;html=1;rounded=0;exitX=1;exitY=0.5;exitDx=0;exitDy=0;entryX=0;entryY=0.5;entryDx=0;entryDy=0;" parent="1" source="Dgxblj_lXLzGdG6ywSU2-28" target="Dgxblj_lXLzGdG6ywSU2-31" edge="1">
          <mxGeometry x="-0.131" y="24" width="160" relative="1" as="geometry">
            <mxPoint x="1650" y="240" as="sourcePoint" />
            <mxPoint x="1780" y="240" as="targetPoint" />
            <Array as="points" />
            <mxPoint as="offset" />
          </mxGeometry>
        </mxCell>
        <mxCell id="Dgxblj_lXLzGdG6ywSU2-41" value="include" style="endArrow=open;endSize=12;dashed=1;html=1;rounded=0;exitX=1;exitY=0.5;exitDx=0;exitDy=0;entryX=0;entryY=0.5;entryDx=0;entryDy=0;" parent="1" source="Dgxblj_lXLzGdG6ywSU2-26" target="Dgxblj_lXLzGdG6ywSU2-31" edge="1">
          <mxGeometry x="-0.131" y="24" width="160" relative="1" as="geometry">
            <mxPoint x="1650" y="360" as="sourcePoint" />
            <mxPoint x="1760" y="280" as="targetPoint" />
            <Array as="points" />
            <mxPoint as="offset" />
          </mxGeometry>
        </mxCell>
        <mxCell id="Dgxblj_lXLzGdG6ywSU2-42" value="include" style="endArrow=open;endSize=12;dashed=1;html=1;rounded=0;exitX=1;exitY=0.5;exitDx=0;exitDy=0;entryX=0;entryY=0.5;entryDx=0;entryDy=0;" parent="1" source="Dgxblj_lXLzGdG6ywSU2-35" target="Dgxblj_lXLzGdG6ywSU2-31" edge="1">
          <mxGeometry x="-0.131" y="24" width="160" relative="1" as="geometry">
            <mxPoint x="1660" y="370" as="sourcePoint" />
            <mxPoint x="1770" y="290" as="targetPoint" />
            <Array as="points" />
            <mxPoint as="offset" />
          </mxGeometry>
        </mxCell>
        <mxCell id="Dgxblj_lXLzGdG6ywSU2-45" value="emprunte un livre" style="ellipse;whiteSpace=wrap;html=1;flipH=0;flipV=1;" parent="1" vertex="1">
          <mxGeometry x="1450" y="644" width="190" height="80" as="geometry" />
        </mxCell>
        <mxCell id="Dgxblj_lXLzGdG6ywSU2-46" value="retourne un livre emprunté" style="ellipse;whiteSpace=wrap;html=1;flipH=0;flipV=1;" parent="1" vertex="1">
          <mxGeometry x="1450" y="770" width="190" height="80" as="geometry" />
        </mxCell>
        <mxCell id="Dgxblj_lXLzGdG6ywSU2-47" value="include" style="endArrow=open;endSize=12;dashed=1;html=1;rounded=0;exitX=1;exitY=0.5;exitDx=0;exitDy=0;entryX=0;entryY=0.5;entryDx=0;entryDy=0;" parent="1" source="Dgxblj_lXLzGdG6ywSU2-45" target="Dgxblj_lXLzGdG6ywSU2-31" edge="1">
          <mxGeometry x="-0.131" y="24" width="160" relative="1" as="geometry">
            <mxPoint x="1650" y="480" as="sourcePoint" />
            <mxPoint x="2000" y="360" as="targetPoint" />
            <Array as="points" />
            <mxPoint as="offset" />
          </mxGeometry>
        </mxCell>
        <mxCell id="Dgxblj_lXLzGdG6ywSU2-48" value="include" style="endArrow=open;endSize=12;dashed=1;html=1;rounded=0;exitX=1;exitY=0.5;exitDx=0;exitDy=0;entryX=0;entryY=0.5;entryDx=0;entryDy=0;" parent="1" source="Dgxblj_lXLzGdG6ywSU2-46" target="Dgxblj_lXLzGdG6ywSU2-31" edge="1">
          <mxGeometry x="-0.131" y="24" width="160" relative="1" as="geometry">
            <mxPoint x="1660" y="490" as="sourcePoint" />
            <mxPoint x="2010" y="370" as="targetPoint" />
            <Array as="points" />
            <mxPoint as="offset" />
          </mxGeometry>
        </mxCell>
        <mxCell id="Dgxblj_lXLzGdG6ywSU2-49" value="" style="endArrow=none;html=1;rounded=0;exitX=1;exitY=0.3333333333333333;exitDx=0;exitDy=0;exitPerimeter=0;entryX=0;entryY=0.5;entryDx=0;entryDy=0;" parent="1" source="Dgxblj_lXLzGdG6ywSU2-23" target="Dgxblj_lXLzGdG6ywSU2-45" edge="1">
          <mxGeometry width="50" height="50" relative="1" as="geometry">
            <mxPoint x="1220" y="333" as="sourcePoint" />
            <mxPoint x="1460" y="480" as="targetPoint" />
          </mxGeometry>
        </mxCell>
        <mxCell id="Dgxblj_lXLzGdG6ywSU2-50" value="" style="endArrow=none;html=1;rounded=0;exitX=1;exitY=0.3333333333333333;exitDx=0;exitDy=0;exitPerimeter=0;entryX=0;entryY=0.5;entryDx=0;entryDy=0;" parent="1" source="Dgxblj_lXLzGdG6ywSU2-23" target="Dgxblj_lXLzGdG6ywSU2-46" edge="1">
          <mxGeometry width="50" height="50" relative="1" as="geometry">
            <mxPoint x="1230" y="343" as="sourcePoint" />
            <mxPoint x="1470" y="490" as="targetPoint" />
          </mxGeometry>
        </mxCell>
        <mxCell id="Dgxblj_lXLzGdG6ywSU2-51" value="affiche les livres" style="ellipse;whiteSpace=wrap;html=1;flipH=0;flipV=1;" parent="1" vertex="1">
          <mxGeometry x="1450" y="531" width="190" height="80" as="geometry" />
        </mxCell>
        <mxCell id="Dgxblj_lXLzGdG6ywSU2-52" value="" style="endArrow=none;html=1;rounded=0;exitX=1;exitY=0.3333333333333333;exitDx=0;exitDy=0;exitPerimeter=0;entryX=0;entryY=0.5;entryDx=0;entryDy=0;" parent="1" source="Dgxblj_lXLzGdG6ywSU2-23" target="Dgxblj_lXLzGdG6ywSU2-51" edge="1">
          <mxGeometry width="50" height="50" relative="1" as="geometry">
            <mxPoint x="1220" y="333" as="sourcePoint" />
            <mxPoint x="1460" y="475" as="targetPoint" />
          </mxGeometry>
        </mxCell>
        <mxCell id="Dgxblj_lXLzGdG6ywSU2-53" value="include" style="endArrow=open;endSize=12;dashed=1;html=1;rounded=0;exitX=1;exitY=0.5;exitDx=0;exitDy=0;entryX=0;entryY=0.5;entryDx=0;entryDy=0;" parent="1" source="Dgxblj_lXLzGdG6ywSU2-51" target="Dgxblj_lXLzGdG6ywSU2-31" edge="1">
          <mxGeometry x="-0.131" y="24" width="160" relative="1" as="geometry">
            <mxPoint x="1650" y="475" as="sourcePoint" />
            <mxPoint x="2050" y="470" as="targetPoint" />
            <Array as="points" />
            <mxPoint as="offset" />
          </mxGeometry>
        </mxCell>
        <mxCell id="SxwXO_zQ6z6vNdcl9699-12" value="&lt;p style=&quot;margin:0px;margin-top:4px;text-align:center;&quot;&gt;&lt;b&gt;livre&lt;/b&gt;&lt;/p&gt;&lt;hr size=&quot;1&quot;&gt;&lt;p style=&quot;margin:0px;margin-left:4px;&quot;&gt;&lt;/p&gt;&amp;nbsp;- id:int&amp;nbsp;&lt;br&gt;&amp;nbsp;- titre: string&lt;br&gt;&amp;nbsp;- ISBN: long&lt;br&gt;&amp;nbsp;- quantite: int&lt;br&gt;&lt;span id=&quot;docs-internal-guid-11c1d972-7fff-43f4-3b42-d1f922a2a3e9&quot;&gt;&lt;/span&gt;&lt;hr size=&quot;1&quot;&gt;&lt;p style=&quot;margin:0px;margin-left:4px;&quot;&gt;&lt;br&gt;&lt;/p&gt;" style="verticalAlign=top;align=left;overflow=fill;fontSize=12;fontFamily=Helvetica;html=1;whiteSpace=wrap;" vertex="1" parent="1">
          <mxGeometry x="460" y="620" width="160" height="149" as="geometry" />
        </mxCell>
        <mxCell id="SxwXO_zQ6z6vNdcl9699-13" value="&lt;p style=&quot;margin:0px;margin-top:4px;text-align:center;&quot;&gt;&lt;b&gt;Emprunteur&lt;/b&gt;&lt;/p&gt;&lt;hr size=&quot;1&quot;&gt;&lt;p style=&quot;margin:0px;margin-left:4px;&quot;&gt;&lt;/p&gt;&amp;nbsp;- id: int&lt;br&gt;&amp;nbsp;- name_client: string&lt;br&gt;&amp;nbsp;- CIN: string&lt;br&gt;&amp;nbsp;- deleted:&amp;nbsp; bool&lt;br&gt;&amp;nbsp;- date_emprunt&lt;span style=&quot;background-color: initial;&quot;&gt;: date&lt;/span&gt;&lt;br&gt;&amp;nbsp;-&amp;nbsp;dateReturn&lt;span style=&quot;background-color: initial;&quot;&gt;: date&lt;br&gt;&lt;/span&gt;- status: stirng&amp;nbsp;&lt;br&gt;&lt;span id=&quot;docs-internal-guid-11c1d972-7fff-43f4-3b42-d1f922a2a3e9&quot;&gt;&lt;/span&gt;&lt;hr size=&quot;1&quot;&gt;&lt;p style=&quot;margin:0px;margin-left:4px;&quot;&gt;&lt;/p&gt;" style="verticalAlign=top;align=left;overflow=fill;fontSize=12;fontFamily=Helvetica;html=1;whiteSpace=wrap;" vertex="1" parent="1">
          <mxGeometry x="-50" y="609" width="160" height="160" as="geometry" />
        </mxCell>
        <mxCell id="SxwXO_zQ6z6vNdcl9699-14" value="" style="endArrow=none;html=1;rounded=0;entryX=-0.006;entryY=0.424;entryDx=0;entryDy=0;entryPerimeter=0;exitX=1;exitY=0.5;exitDx=0;exitDy=0;" edge="1" parent="1" source="SxwXO_zQ6z6vNdcl9699-13" target="SxwXO_zQ6z6vNdcl9699-12">
          <mxGeometry relative="1" as="geometry">
            <mxPoint x="130" y="710" as="sourcePoint" />
            <mxPoint x="340" y="630" as="targetPoint" />
          </mxGeometry>
        </mxCell>
        <mxCell id="SxwXO_zQ6z6vNdcl9699-15" value="1,*" style="edgeLabel;resizable=0;html=1;align=right;verticalAlign=bottom;" connectable="0" vertex="1" parent="SxwXO_zQ6z6vNdcl9699-14">
          <mxGeometry x="1" relative="1" as="geometry">
            <mxPoint x="-20" as="offset" />
          </mxGeometry>
        </mxCell>
        <mxCell id="SxwXO_zQ6z6vNdcl9699-16" value="0,*" style="edgeLabel;html=1;align=center;verticalAlign=middle;resizable=0;points=[];" vertex="1" connectable="0" parent="SxwXO_zQ6z6vNdcl9699-14">
          <mxGeometry x="-0.8934" relative="1" as="geometry">
            <mxPoint y="-15" as="offset" />
          </mxGeometry>
        </mxCell>
        <mxCell id="SxwXO_zQ6z6vNdcl9699-17" value="&lt;p style=&quot;margin:0px;margin-top:4px;text-align:center;&quot;&gt;&lt;b&gt;Auteur&lt;/b&gt;&lt;/p&gt;&lt;hr size=&quot;1&quot;&gt;&lt;p style=&quot;margin:0px;margin-left:4px;&quot;&gt;&lt;/p&gt;&amp;nbsp;- id: int&lt;br&gt;&amp;nbsp;- name: string&lt;br&gt;&amp;nbsp;- prnome: string&lt;br&gt;&amp;nbsp;- date_naissance: date&lt;br&gt;&amp;nbsp;- nationalité: string&lt;br&gt;&lt;span id=&quot;docs-internal-guid-11c1d972-7fff-43f4-3b42-d1f922a2a3e9&quot;&gt;&lt;/span&gt;&lt;hr size=&quot;1&quot;&gt;&lt;p style=&quot;margin:0px;margin-left:4px;&quot;&gt;&lt;/p&gt;" style="verticalAlign=top;align=left;overflow=fill;fontSize=12;fontFamily=Helvetica;html=1;whiteSpace=wrap;" vertex="1" parent="1">
          <mxGeometry x="750" y="550" width="160" height="130" as="geometry" />
        </mxCell>
        <mxCell id="SxwXO_zQ6z6vNdcl9699-18" value="" style="endArrow=none;html=1;rounded=0;entryX=-0.001;entryY=0.562;entryDx=0;entryDy=0;entryPerimeter=0;exitX=1;exitY=0.25;exitDx=0;exitDy=0;" edge="1" parent="1" source="SxwXO_zQ6z6vNdcl9699-12" target="SxwXO_zQ6z6vNdcl9699-17">
          <mxGeometry relative="1" as="geometry">
            <mxPoint x="180" y="735" as="sourcePoint" />
            <mxPoint x="449" y="734" as="targetPoint" />
          </mxGeometry>
        </mxCell>
        <mxCell id="SxwXO_zQ6z6vNdcl9699-19" value="1" style="edgeLabel;resizable=0;html=1;align=right;verticalAlign=bottom;" connectable="0" vertex="1" parent="SxwXO_zQ6z6vNdcl9699-18">
          <mxGeometry x="1" relative="1" as="geometry">
            <mxPoint x="-20" as="offset" />
          </mxGeometry>
        </mxCell>
        <mxCell id="SxwXO_zQ6z6vNdcl9699-20" value="1,*" style="edgeLabel;html=1;align=center;verticalAlign=middle;resizable=0;points=[];" vertex="1" connectable="0" parent="SxwXO_zQ6z6vNdcl9699-18">
          <mxGeometry x="-0.8934" relative="1" as="geometry">
            <mxPoint y="-15" as="offset" />
          </mxGeometry>
        </mxCell>
        <mxCell id="SxwXO_zQ6z6vNdcl9699-21" value="&lt;p style=&quot;margin:0px;margin-top:4px;text-align:center;&quot;&gt;&lt;b&gt;Emprunteur_livre&lt;/b&gt;&lt;/p&gt;&lt;hr size=&quot;1&quot;&gt;&lt;p style=&quot;margin:0px;margin-left:4px;&quot;&gt;&lt;/p&gt;&amp;nbsp;- id: int&lt;br&gt;&lt;span id=&quot;docs-internal-guid-11c1d972-7fff-43f4-3b42-d1f922a2a3e9&quot;&gt;&lt;/span&gt;&lt;hr size=&quot;1&quot;&gt;&lt;p style=&quot;margin:0px;margin-left:4px;&quot;&gt;&lt;/p&gt;" style="verticalAlign=top;align=left;overflow=fill;fontSize=12;fontFamily=Helvetica;html=1;whiteSpace=wrap;" vertex="1" parent="1">
          <mxGeometry x="170" y="790" width="160" height="70" as="geometry" />
        </mxCell>
        <mxCell id="SxwXO_zQ6z6vNdcl9699-22" value="" style="endArrow=none;html=1;rounded=0;exitX=0.5;exitY=0;exitDx=0;exitDy=0;dashed=1;" edge="1" parent="1" source="SxwXO_zQ6z6vNdcl9699-21">
          <mxGeometry width="50" height="50" relative="1" as="geometry">
            <mxPoint x="230" y="820" as="sourcePoint" />
            <mxPoint x="250" y="690" as="targetPoint" />
          </mxGeometry>
        </mxCell>
      </root>
    </mxGraphModel>
  </diagram>
</mxfile>
